<?xml version="1.0" encoding="UTF-8"?><svg id="Layer_2" xmlns="http://www.w3.org/2000/svg" viewBox="0 0 435.39 127.98"><defs><style>.cls-1{fill:#231f20;stroke-width:0px;}</style></defs><g id="Layer_1-2"><path class="cls-1" d="m51.29,79.7C17.64,79.7,0,62.06,0,39.85S17.64,0,51.29,0s51.28,17.64,51.28,39.85-17.64,39.85-51.28,39.85m0-13.07c23.63,0,36.26-11.87,36.26-26.79s-12.63-26.79-36.26-26.79S15.03,24.93,15.03,39.85s12.63,26.79,36.26,26.79"/><polygon class="cls-1" points="202.62 64.02 205.12 64.02 205.12 1.74 220.15 1.74 220.15 77.96 195.65 77.96 141.75 14.81 139.03 14.81 139.03 77.96 124.01 77.96 124.01 1.74 149.7 1.74 202.62 64.02"/><polygon class="cls-1" points="289.06 77.96 274.03 77.96 274.03 53.13 231.9 1.74 250.41 1.74 281.66 39.96 312.91 1.74 331.2 1.74 289.06 53.13 289.06 77.96"/><polygon class="cls-1" points="386.18 47.69 356.67 77.96 337.17 77.96 376.38 37.78 341.31 1.74 361.02 1.74 386.28 27.66 411.55 1.74 431.04 1.74 395.98 37.67 435.39 77.96 415.68 77.96 386.18 47.69"/><polygon class="cls-1" points="64.77 103.5 64.77 105.91 54.07 105.91 54.07 114.45 64.41 114.45 64.41 116.85 54.07 116.85 54.07 125.54 65.06 125.54 65.06 127.98 51.38 127.98 51.38 103.5 64.77 103.5"/><polygon class="cls-1" points="135.98 103.5 135.98 125.51 147.5 125.51 147.5 127.98 133.28 127.98 133.28 103.5 135.98 103.5"/><rect class="cls-1" x="214.64" y="103.5" width="2.69" height="24.48"/><polygon class="cls-1" points="304.6 103.5 304.6 105.87 295.84 105.87 295.84 127.98 293.15 127.98 293.15 105.87 284.5 105.87 284.5 103.5 304.6 103.5"/><polygon class="cls-1" points="385.23 103.5 385.23 105.91 374.54 105.91 374.54 114.45 384.87 114.45 384.87 116.85 374.54 116.85 374.54 125.54 385.52 125.54 385.52 127.98 371.84 127.98 371.84 103.5 385.23 103.5"/></g></svg>